<?xml version="1.0" encoding="UTF-8" standalone="no"?>
<!-- Generator: Adobe Illustrator 25.1.0, SVG Export Plug-In . SVG Version: 6.00 Build 0)  -->

<svg
   version="1.1"
   id="Laag_1"
   x="0px"
   y="0px"
   viewBox="0 0 918 190"
   xml:space="preserve"
   sodipodi:docname="FacilitySpot_Logo_1.svg"
   width="918"
   height="190"
   inkscape:version="1.1.2 (0a00cf5339, 2022-02-04, custom)"
   xmlns:inkscape="http://www.inkscape.org/namespaces/inkscape"
   xmlns:sodipodi="http://sodipodi.sourceforge.net/DTD/sodipodi-0.dtd"
   xmlns="http://www.w3.org/2000/svg"
   xmlns:svg="http://www.w3.org/2000/svg"><defs
   id="defs85" /><sodipodi:namedview
   id="namedview83"
   pagecolor="#ffffff"
   bordercolor="#666666"
   borderopacity="1.0"
   inkscape:pageshadow="2"
   inkscape:pageopacity="0.0"
   inkscape:pagecheckerboard="0"
   showgrid="false"
   width="500px"
   inkscape:zoom="0.818"
   inkscape:cx="339.24205"
   inkscape:cy="251.83374"
   inkscape:window-width="1920"
   inkscape:window-height="1027"
   inkscape:window-x="-8"
   inkscape:window-y="22"
   inkscape:window-maximized="1"
   inkscape:current-layer="Laag_1" />
<style
   type="text/css"
   id="style48">
	.st0{fill:#29BD00;}
	.st1{fill:#B7E200;}
</style>
<g
   id="g80">
	<path
   class="st0"
   d="m 99.522746,11.70577 c -28.790003,-18.2999993 -66.960007,-9.7899993 -85.260007,19 -17.4600002,27.47 -10.5000002,63.459996 15.17,82.59999 l 10.02,9.32 v 0 l 0.07,0.07 1.31,1.22 0.02,-0.02 21.63,19.63 15.160004,-16.71 -21.420004,-19.44 34.460004,-37.01999 -16.62,-15.47 -34.540004,37.129996 c -13.51,-12.49 -16.6,-33.229996 -6.38,-49.309996 11.5,-18.1 35.51,-23.45 53.610004,-11.95 1.92,1.22 3.68,2.59 5.31,4.06 1.06,-1.12 2.13,-2.24 3.18,-3.38 2.57,-2.77 5.120007,-5.56 7.570007,-8.44 1.53,-1.79 2.89,-3.74 4.52,-5.43 -2.41,-2.11 -5.01,-4.08 -7.810004,-5.86 z"
   id="path50" />
	<path
   class="st1"
   d="M 104.18275,83.325766 89.472743,99.995762 c 13.230007,12.609998 16.160007,33.189998 5.99,49.199998 -11.57,18.21 -35.710004,23.59 -53.920004,12.02 -11.16,-7.09 -17.49,-18.9 -18.06,-31.17 -7.4,0.41 -14.8100002,0.9 -22.2400002,1.04 0.84,19.37 10.8000002,38.03 28.4000002,49.22 28.62,18.19 66.560004,9.73 84.750011,-18.89 16.19,-25.5 11.26,-58.35 -10.21,-78.089994 z"
   id="path52" />
	<g
   id="g78"
   transform="translate(-47.677261,-154.03424)">
		<path
   class="st0"
   d="m 293.47,203.94 c 0.63,1 1.2,2.33 1.69,4.01 0.5,1.68 0.75,3.41 0.75,5.22 0,3.53 -0.75,6.04 -2.24,7.53 -1.5,1.49 -3.51,2.24 -6.04,2.24 h -28.49 v 15.32 h 29.71 c 0.72,1 1.34,2.31 1.83,3.94 0.5,1.62 0.75,3.35 0.75,5.16 0,3.43 -0.75,5.9 -2.24,7.39 -1.5,1.49 -3.51,2.24 -6.04,2.24 h -23.74 v 28.63 c -0.99,0.26 -2.56,0.54 -4.68,0.82 -2.13,0.26 -4.23,0.4 -6.3,0.4 -2.09,0 -3.91,-0.15 -5.5,-0.47 -1.58,-0.31 -2.91,-0.87 -4,-1.69 -1.08,-0.82 -1.9,-1.94 -2.44,-3.39 -0.54,-1.45 -0.82,-3.35 -0.82,-5.7 v -59.03 c 0,-3.89 1.13,-6.96 3.4,-9.22 2.26,-2.26 5.33,-3.4 9.22,-3.4 z"
   id="path54" />
		<path
   class="st0"
   d="m 330.1,218.19 c 4.89,0 9.34,0.5 13.37,1.49 4.02,0.99 7.46,2.51 10.31,4.55 2.85,2.03 5.04,4.6 6.58,7.73 1.53,3.12 2.3,6.8 2.3,11.05 v 30.4 c 0,2.35 -0.66,4.27 -1.97,5.76 -1.31,1.49 -2.87,2.78 -4.68,3.86 -5.88,3.53 -14.15,5.3 -24.83,5.3 -4.8,0 -9.11,-0.45 -12.96,-1.36 -3.85,-0.91 -7.15,-2.26 -9.9,-4.07 -2.76,-1.81 -4.89,-4.12 -6.38,-6.92 -1.5,-2.79 -2.24,-6.05 -2.24,-9.76 0,-6.25 1.85,-11.04 5.56,-14.39 3.7,-3.35 9.45,-5.42 17.23,-6.24 l 17.77,-1.9 v -0.95 c 0,-2.63 -1.15,-4.5 -3.46,-5.63 -2.31,-1.13 -5.63,-1.7 -9.98,-1.7 -3.44,0 -6.78,0.36 -10.04,1.09 -3.26,0.72 -6.2,1.62 -8.82,2.71 -1.18,-0.81 -2.17,-2.05 -2.98,-3.73 -0.82,-1.67 -1.23,-3.41 -1.23,-5.22 0,-2.35 0.57,-4.23 1.7,-5.63 1.13,-1.4 2.87,-2.59 5.22,-3.59 2.62,-0.99 5.72,-1.72 9.29,-2.18 3.61,-0.45 6.97,-0.67 10.14,-0.67 z m 1.09,53.32 c 1.53,0 3.23,-0.15 5.08,-0.47 1.85,-0.32 3.24,-0.75 4.14,-1.29 V 258.9 l -9.77,0.82 c -2.53,0.18 -4.61,0.73 -6.24,1.62 -1.63,0.91 -2.44,2.26 -2.44,4.07 0,1.81 0.7,3.28 2.1,4.41 1.41,1.12 3.78,1.69 7.13,1.69 z"
   id="path56" />
		<path
   class="st0"
   d="m 413.95,236.36 c -2.26,0 -4.41,0.36 -6.45,1.09 -2.03,0.72 -3.8,1.78 -5.29,3.18 -1.49,1.4 -2.69,3.15 -3.59,5.22 -0.91,2.09 -1.36,4.53 -1.36,7.33 0,5.61 1.61,9.82 4.81,12.62 3.21,2.8 7.13,4.21 11.74,4.21 2.72,0 5.07,-0.32 7.06,-0.95 1.99,-0.64 3.75,-1.31 5.29,-2.04 1.81,1.27 3.16,2.65 4.07,4.14 0.9,1.49 1.36,3.28 1.36,5.37 0,3.71 -1.77,6.58 -5.29,8.61 -3.53,2.03 -8.41,3.05 -14.65,3.05 -5.7,0 -10.85,-0.84 -15.47,-2.51 -4.61,-1.67 -8.57,-4.02 -11.87,-7.06 -3.3,-3.03 -5.86,-6.67 -7.67,-10.92 -1.81,-4.25 -2.71,-8.95 -2.71,-14.11 0,-5.97 0.97,-11.2 2.91,-15.67 1.94,-4.48 4.59,-8.17 7.94,-11.06 3.35,-2.89 7.21,-5.07 11.6,-6.51 4.39,-1.44 9.02,-2.16 13.91,-2.16 6.51,0 11.53,1.17 15.06,3.52 3.53,2.35 5.29,5.39 5.29,9.09 0,1.72 -0.41,3.33 -1.23,4.82 -0.81,1.49 -1.76,2.78 -2.85,3.86 -1.53,-0.73 -3.39,-1.42 -5.56,-2.11 -2.17,-0.66 -4.52,-1.01 -7.05,-1.01 z"
   id="path58" />
		<path
   class="st0"
   d="m 442.58,201.91 c 0,-3.43 1.15,-6.33 3.46,-8.68 2.31,-2.35 5.36,-3.53 9.16,-3.53 3.8,0 6.85,1.18 9.16,3.53 2.31,2.35 3.46,5.24 3.46,8.68 0,3.44 -1.15,6.34 -3.46,8.69 -2.31,2.35 -5.36,3.52 -9.16,3.52 -3.8,0 -6.85,-1.17 -9.16,-3.52 -2.31,-2.36 -3.46,-5.25 -3.46,-8.69 z m 24.14,84.12 c -0.99,0.18 -2.46,0.42 -4.41,0.74 -1.94,0.32 -3.91,0.47 -5.9,0.47 -1.99,0 -3.78,-0.13 -5.35,-0.41 -1.58,-0.26 -2.92,-0.81 -4,-1.62 -1.09,-0.82 -1.93,-1.92 -2.51,-3.32 -0.59,-1.4 -0.88,-3.24 -0.88,-5.5 v -55.22 c 0.99,-0.18 2.46,-0.43 4.41,-0.75 1.94,-0.31 3.91,-0.47 5.9,-0.47 1.99,0 3.78,0.14 5.36,0.41 1.58,0.28 2.91,0.82 4,1.63 1.08,0.82 1.92,1.92 2.51,3.32 0.59,1.4 0.88,3.24 0.88,5.49 v 55.23 z"
   id="path60" />
		<path
   class="st0"
   d="m 504.85,286.03 c -1,0.18 -2.47,0.42 -4.41,0.74 -1.95,0.32 -3.91,0.47 -5.9,0.47 -1.99,0 -3.78,-0.13 -5.36,-0.41 -1.58,-0.26 -2.91,-0.81 -4,-1.62 -1.09,-0.82 -1.92,-1.92 -2.51,-3.32 -0.59,-1.4 -0.88,-3.24 -0.88,-5.5 V 197.7 c 0.99,-0.18 2.46,-0.43 4.41,-0.74 1.95,-0.32 3.91,-0.47 5.9,-0.47 1.99,0 3.78,0.13 5.36,0.4 1.58,0.28 2.92,0.82 4,1.63 1.09,0.82 1.92,1.92 2.51,3.32 0.59,1.4 0.88,3.24 0.88,5.5 z"
   id="path62" />
		<path
   class="st0"
   d="m 518.82,201.91 c 0,-3.43 1.15,-6.33 3.46,-8.68 2.31,-2.35 5.36,-3.53 9.16,-3.53 3.8,0 6.85,1.18 9.16,3.53 2.31,2.35 3.46,5.24 3.46,8.68 0,3.44 -1.15,6.34 -3.46,8.69 -2.31,2.35 -5.36,3.52 -9.16,3.52 -3.8,0 -6.85,-1.17 -9.16,-3.52 -2.31,-2.36 -3.46,-5.25 -3.46,-8.69 z m 24.15,84.12 c -0.99,0.18 -2.46,0.42 -4.41,0.74 -1.94,0.32 -3.91,0.47 -5.9,0.47 -1.99,0 -3.78,-0.13 -5.35,-0.41 -1.58,-0.26 -2.92,-0.81 -4,-1.62 -1.09,-0.82 -1.93,-1.92 -2.51,-3.32 -0.59,-1.4 -0.88,-3.24 -0.88,-5.5 v -55.22 c 0.99,-0.18 2.46,-0.43 4.41,-0.75 1.94,-0.31 3.91,-0.47 5.9,-0.47 1.99,0 3.78,0.14 5.36,0.41 1.58,0.28 2.91,0.82 4,1.63 1.08,0.82 1.92,1.92 2.51,3.32 0.59,1.4 0.88,3.24 0.88,5.49 v 55.23 z"
   id="path64" />
		<path
   class="st0"
   d="m 580.68,263.5 c 0,2.35 0.75,4.03 2.24,5.02 1.5,0.99 3.6,1.49 6.31,1.49 1.36,0 2.76,-0.11 4.21,-0.34 1.45,-0.22 2.72,-0.52 3.8,-0.88 0.82,0.99 1.51,2.11 2.1,3.32 0.59,1.23 0.88,2.69 0.88,4.42 0,3.43 -1.29,6.24 -3.87,8.4 -2.58,2.18 -7.12,3.26 -13.63,3.26 -7.96,0 -14.09,-1.81 -18.39,-5.42 -4.29,-3.62 -6.44,-9.5 -6.44,-17.64 v -58.06 c 0.99,-0.26 2.42,-0.56 4.27,-0.88 1.85,-0.31 3.82,-0.47 5.9,-0.47 3.98,0 7.08,0.71 9.3,2.11 2.21,1.4 3.32,4.36 3.32,8.89 v 8.68 h 17.77 c 0.55,0.99 1.07,2.24 1.56,3.73 0.49,1.49 0.75,3.15 0.75,4.95 0,3.17 -0.7,5.45 -2.1,6.86 -1.4,1.41 -3.28,2.1 -5.63,2.1 h -12.34 v 20.46 z"
   id="path66" />
		<path
   class="st0"
   d="m 622.2,269.33 c -1,-2.25 -2.06,-4.79 -3.19,-7.6 -1.13,-2.8 -2.31,-6.02 -3.53,-9.63 -1.22,-3.62 -2.49,-7.76 -3.8,-12.42 -1.31,-4.65 -2.69,-10.01 -4.13,-16.08 1.26,-1.26 2.96,-2.37 5.08,-3.32 2.13,-0.95 4.46,-1.42 6.99,-1.42 3.16,0 5.79,0.66 7.87,1.97 2.08,1.31 3.62,3.78 4.62,7.4 l 10.72,37.31 h 0.55 c 1.08,-3.07 2.15,-6.41 3.19,-10.04 1.04,-3.62 2.06,-7.35 3.05,-11.2 0.99,-3.84 1.92,-7.68 2.78,-11.53 0.86,-3.84 1.61,-7.62 2.24,-11.33 3.26,-1.72 6.83,-2.58 10.72,-2.58 3.16,0 5.79,0.68 7.87,2.03 2.08,1.36 3.12,3.71 3.12,7.06 0,2.45 -0.32,5.28 -0.95,8.48 -0.63,3.21 -1.47,6.64 -2.51,10.25 -1.04,3.62 -2.26,7.35 -3.67,11.2 -1.4,3.84 -2.87,7.62 -4.41,11.33 -1.54,3.71 -3.12,7.21 -4.75,10.51 -1.62,3.3 -3.21,6.27 -4.75,8.89 -2.53,4.43 -4.88,8.05 -7.06,10.85 -2.17,2.8 -4.25,5 -6.24,6.58 -1.99,1.58 -3.98,2.67 -5.97,3.26 -1.99,0.59 -4.07,0.88 -6.24,0.88 -3.8,0 -6.87,-1.14 -9.22,-3.39 -2.35,-2.26 -3.75,-5.2 -4.21,-8.82 2.89,-2.26 5.79,-4.77 8.68,-7.53 2.89,-2.76 5.52,-5.59 7.87,-8.48 -1.54,-0.45 -3.19,-1.51 -4.95,-3.19 -1.77,-1.68 -3.7,-4.82 -5.77,-9.44 z"
   id="path68" />
		<path
   class="st1"
   d="m 711.74,253.47 c -3.99,-1.36 -7.6,-2.74 -10.86,-4.14 -3.25,-1.4 -6.06,-3.1 -8.41,-5.09 -2.36,-1.99 -4.18,-4.36 -5.5,-7.12 -1.31,-2.76 -1.97,-6.13 -1.97,-10.11 0,-7.68 2.96,-13.83 8.89,-18.45 5.92,-4.62 14.22,-6.91 24.89,-6.91 3.89,0 7.51,0.26 10.86,0.81 3.34,0.54 6.22,1.38 8.61,2.52 2.4,1.13 4.27,2.57 5.63,4.34 1.36,1.77 2.04,3.82 2.04,6.17 0,2.35 -0.55,4.36 -1.63,6.04 -1.09,1.67 -2.4,3.09 -3.94,4.27 -1.99,-1.27 -4.66,-2.37 -8,-3.32 -3.35,-0.95 -7.01,-1.42 -10.99,-1.42 -4.07,0 -7.06,0.56 -8.95,1.69 -1.9,1.14 -2.85,2.56 -2.85,4.27 0,1.36 0.59,2.47 1.77,3.32 1.18,0.86 2.94,1.66 5.29,2.38 l 7.19,2.3 c 8.5,2.72 15.03,6.18 19.6,10.38 4.57,4.21 6.85,9.94 6.85,17.17 0,7.68 -3.03,13.9 -9.09,18.65 -6.06,4.76 -14.97,7.13 -26.73,7.13 -4.16,0 -8.03,-0.34 -11.6,-1.03 -3.58,-0.67 -6.7,-1.67 -9.36,-2.98 -2.67,-1.31 -4.75,-2.94 -6.24,-4.88 -1.5,-1.94 -2.24,-4.18 -2.24,-6.72 0,-2.62 0.77,-4.86 2.31,-6.71 1.53,-1.85 3.21,-3.28 5.02,-4.27 2.53,1.99 5.63,3.71 9.3,5.16 3.66,1.45 7.66,2.18 12.01,2.18 4.43,0 7.55,-0.68 9.36,-2.04 1.81,-1.35 2.72,-2.94 2.72,-4.75 0,-1.8 -0.72,-3.18 -2.17,-4.13 -1.45,-0.95 -3.48,-1.88 -6.11,-2.78 z"
   id="path70" />
		<path
   class="st1"
   d="m 791.24,218.19 c 5.43,0 10.47,0.7 15.13,2.1 4.65,1.4 8.66,3.56 12.01,6.45 3.35,2.89 5.97,6.54 7.87,10.92 1.9,4.38 2.85,9.62 2.85,15.67 0,5.8 -0.81,10.85 -2.44,15.2 -1.63,4.34 -3.94,7.98 -6.92,10.92 -2.98,2.94 -6.58,5.13 -10.78,6.58 -4.21,1.45 -8.89,2.16 -14.04,2.16 -3.89,0 -7.51,-0.59 -10.85,-1.76 v 22.51 c -0.91,0.28 -2.35,0.56 -4.34,0.88 -1.99,0.32 -4.02,0.47 -6.1,0.47 -1.99,0 -3.78,-0.13 -5.36,-0.41 -1.58,-0.26 -2.92,-0.81 -4,-1.62 -1.09,-0.82 -1.9,-1.92 -2.45,-3.32 -0.54,-1.4 -0.81,-3.24 -0.81,-5.5 v -65.12 c 0,-2.44 0.52,-4.43 1.56,-5.97 1.04,-1.53 2.46,-2.94 4.27,-4.21 2.8,-1.8 6.28,-3.26 10.44,-4.34 4.14,-1.07 8.8,-1.61 13.96,-1.61 z m 0.27,51.83 c 9.31,0 13.97,-5.56 13.97,-16.69 0,-5.79 -1.15,-10.08 -3.46,-12.88 -2.31,-2.8 -5.63,-4.21 -9.97,-4.21 -1.72,0 -3.26,0.2 -4.62,0.61 -1.35,0.41 -2.53,0.88 -3.53,1.42 v 29.85 c 1.09,0.54 2.26,0.99 3.53,1.36 1.28,0.35 2.63,0.54 4.08,0.54 z"
   id="path72" />
		<path
   class="st1"
   d="m 908.6,253.19 c 0,5.61 -0.86,10.61 -2.58,14.99 -1.72,4.38 -4.14,8.07 -7.26,11.05 -3.12,2.99 -6.85,5.26 -11.2,6.79 -4.34,1.53 -9.18,2.31 -14.51,2.31 -5.34,0 -10.17,-0.82 -14.52,-2.45 -4.34,-1.62 -8.07,-3.95 -11.19,-6.98 -3.12,-3.04 -5.54,-6.72 -7.26,-11.06 -1.72,-4.34 -2.58,-9.22 -2.58,-14.65 0,-5.33 0.86,-10.18 2.58,-14.52 1.72,-4.34 4.13,-8.03 7.26,-11.05 3.12,-3.04 6.85,-5.37 11.19,-6.99 4.34,-1.63 9.18,-2.44 14.52,-2.44 5.33,0 10.17,0.84 14.51,2.51 4.34,1.68 8.08,4.03 11.2,7.06 3.12,3.04 5.54,6.71 7.26,11.05 1.71,4.34 2.58,9.14 2.58,14.38 z m -47.49,0 c 0,5.52 1.06,9.75 3.19,12.69 2.12,2.94 5.08,4.41 8.88,4.41 3.8,0 6.72,-1.49 8.75,-4.47 2.04,-2.99 3.05,-7.19 3.05,-12.62 0,-5.43 -1.04,-9.61 -3.12,-12.55 -2.08,-2.94 -5.02,-4.41 -8.82,-4.41 -3.8,0 -6.74,1.47 -8.82,4.41 -2.07,2.94 -3.11,7.11 -3.11,12.54 z"
   id="path74" />
		<path
   class="st1"
   d="m 942.92,263.5 c 0,2.35 0.75,4.03 2.24,5.02 1.5,0.99 3.6,1.49 6.31,1.49 1.36,0 2.76,-0.11 4.21,-0.34 1.45,-0.22 2.72,-0.52 3.8,-0.88 0.82,0.99 1.51,2.11 2.1,3.32 0.59,1.23 0.88,2.69 0.88,4.42 0,3.43 -1.29,6.24 -3.87,8.4 -2.58,2.18 -7.12,3.26 -13.63,3.26 -7.96,0 -14.09,-1.81 -18.39,-5.42 -4.29,-3.62 -6.44,-9.5 -6.44,-17.64 v -58.06 c 0.99,-0.26 2.42,-0.56 4.27,-0.88 1.85,-0.31 3.82,-0.47 5.9,-0.47 3.98,0 7.08,0.71 9.3,2.11 2.21,1.4 3.32,4.36 3.32,8.89 v 8.68 h 17.77 c 0.55,0.99 1.07,2.24 1.56,3.73 0.5,1.49 0.75,3.15 0.75,4.95 0,3.17 -0.7,5.45 -2.1,6.86 -1.4,1.4 -3.28,2.1 -5.63,2.1 h -12.34 v 20.46 z"
   id="path76" />
	</g>
</g>
</svg>
