<?xml version="1.0" encoding="UTF-8"?>
<!-- Created with Inkscape (http://www.inkscape.org/) -->
<svg width="544.42981mm" height="96.131943mm" version="1.1" viewBox="0 0 544.42981 96.131943" xmlns="http://www.w3.org/2000/svg" xmlns:cc="http://creativecommons.org/ns#" xmlns:dc="http://purl.org/dc/elements/1.1/" xmlns:rdf="http://www.w3.org/1999/02/22-rdf-syntax-ns#">
 <metadata>
  <rdf:RDF>
   <cc:Work rdf:about="">
    <dc:format>image/svg+xml</dc:format>
    <dc:type rdf:resource="http://purl.org/dc/dcmitype/StillImage"/>
    <dc:title/>
   </cc:Work>
  </rdf:RDF>
 </metadata>
 <g transform="translate(270.70299,36.815971)">
  <path transform="matrix(.26458333 0 0 .26458333 -270.70299 -36.815971)" d="m734.30273 0c-104.66666 0-176 78.666669-176 182 0 106.66666 67.33334 181.33398 176 181.33398 78 0 134.66537-34.66666 161.33204-116h-83.33204c-6 21.33334-36.66797 44.66602-74.66796 44.66602-52.66667 0-81.99935-27.33399-84.66602-87.33398h248.66602c6.66666-106-49.9987-204.66602-167.33204-204.66602zm737.16607 0c-108 0-178.0001 72.000002-178 182 0 109.33333 70 181.33398 178 181.33398 108.6666 0 178.666-72.00065 178.666-181.33398 0-110-69.9994-182-178.666-182zm407.5527 0c-108 0-178 72.000002-178 182 0 109.33333 70 181.33398 178 181.33398 108.6666 0 178.666-72.00065 178.666-181.33398 0-110-69.9994-182-178.666-182zm-1879.0215 9.3339844 109.33398 344.66602h98l58.66602-231.33398h1.33398l61.33204 231.33398h97.33398l108.66602-344.66602h-97.33204l-63.33398 233.33204h-1.33398l-58.66602-233.33204h-92l-57.33398 234h-1.33204l-63.33398-234h-100zm949.78125 0v71.332032h165.99995l-179.33393 202v71.33398h316.66793v-71.33398h-192l179.3321-202v-71.332032h-290.66605zm-218.14648 62c45.99999 0 66.66731 25.332033 75.33398 73.332036h-154c1.33333-26.66667 18.66602-73.332036 78.66602-73.332036zm739.83403 0c64.6666 0 83.9999 55.332686 84 110.66602 0 54.66667-19.3334 110-84 110-64 0-83.334-55.33333-83.334-110 0-55.33333 19.334-110.66602 83.334-110.66602zm407.5527 0c64.6666 0 84 55.332686 84 110.66602 0 54.66667-19.3334 110-84 110-64 0-83.334-55.33333-83.334-110 0-55.33333 19.334-110.66602 83.334-110.66602z" fill="#0abf53"/>
 </g>
</svg>
